<?xml version="1.0" encoding="UTF-8" standalone="no"?>
<!-- Generator: Adobe Illustrator 16.0.0, SVG Export Plug-In . SVG Version: 6.00 Build 0)  -->
<!DOCTYPE svg  PUBLIC '-//W3C//DTD SVG 1.1//EN'  'http://www.w3.org/Graphics/SVG/1.1/DTD/svg11.dtd'>
<svg id="Layer_1" xmlns="http://www.w3.org/2000/svg" xml:space="preserve" height="54px" viewBox="0 0 240 54" width="240px" version="1.1" y="0px" x="0px" xmlns:xlink="http://www.w3.org/1999/xlink" enable-background="new 0 0 240 54">
<path d="m1.483 16.985h6.352v28.216h-6.352v-28.216z" fill="#fff"/>
<path d="m27.215 45.771c-4.587 0-8.082-1.275-10.484-3.826-2.402-2.552-3.603-6.176-3.603-10.872 0-2.333 0.367-4.417 1.1-6.25 0.732-1.832 1.736-3.379 3.013-4.642 1.275-1.262 2.795-2.219 4.56-2.87 1.765-0.652 3.678-0.978 5.741-0.978 1.194 0 2.28 0.088 3.257 0.265s1.833 0.381 2.565 0.61c0.732 0.231 1.344 0.469 1.833 0.713 0.488 0.244 0.841 0.435 1.058 0.57l-1.832 5.13c-0.869-0.461-1.88-0.855-3.033-1.181-1.154-0.326-2.464-0.488-3.929-0.488-0.978 0-1.934 0.162-2.871 0.488s-1.765 0.848-2.484 1.567c-0.719 0.72-1.296 1.649-1.73 2.789-0.435 1.14-0.651 2.525-0.651 4.153 0 1.303 0.143 2.519 0.428 3.645s0.746 2.097 1.384 2.911c0.637 0.814 1.472 1.459 2.504 1.934 1.031 0.476 2.28 0.713 3.746 0.713 0.922 0 1.75-0.054 2.484-0.162 0.732-0.107 1.383-0.237 1.954-0.387 0.569-0.149 1.072-0.319 1.505-0.509 0.435-0.19 0.829-0.366 1.182-0.531l1.751 5.092c-0.896 0.543-2.158 1.031-3.788 1.465-1.628 0.435-3.515 0.651-5.66 0.651z" fill="#fff"/>
	<path d="m39.063 11.883v-1.077c0.019-0.04 0.045-0.078 0.056-0.12 0.325-1.386 1.163-2.307 2.544-2.636 1.379-0.329 2.578 0.08 3.457 1.199 0.877 1.117 0.97 2.36 0.359 3.644-0.075 0.158-0.07 0.262 0.035 0.402 0.873 1.162 1.737 2.33 2.605 3.497 0.161 0.217 0.325 0.433 0.494 0.658 2.415-1.637 5.064-2.501 7.951-2.604 2.897-0.105 5.601 0.604 8.12 2.064 2.256-2.641 4.497-5.265 6.739-7.888-0.043-0.064-0.076-0.111-0.108-0.157-1.239-1.757-0.597-4.169 1.359-5.068 0.287-0.132 0.603-0.202 0.904-0.301h1.021c0.051 0.02 0.101 0.046 0.154 0.057 1.892 0.397 3.077 2.229 2.645 4.094-0.436 1.881-2.313 3.02-4.188 2.524-0.195-0.052-0.3-0.022-0.429 0.128-2.069 2.43-4.144 4.854-6.218 7.281-0.107 0.125-0.211 0.254-0.288 0.345 5.267 4.602 6.891 10.216 4.958 16.899 0.568 0.078 1.158 0.15 1.743 0.247 0.21 0.034 0.308-0.031 0.426-0.203 0.795-1.153 1.908-1.676 3.292-1.493 1.324 0.176 2.241 0.931 2.729 2.183 0.094 0.242 0.148 0.501 0.221 0.752v0.849c-0.019 0.052-0.044 0.103-0.055 0.155-0.255 1.458-1.432 2.603-2.866 2.789-1.528 0.198-2.975-0.586-3.58-1.972-0.163-0.374-0.239-0.788-0.36-1.201-0.017-0.005-0.062-0.02-0.108-0.025-0.644-0.089-1.293-0.157-1.933-0.273-0.265-0.047-0.372 0.028-0.497 0.251-2.516 4.472-6.311 7.107-11.406 7.757-3.929 0.502-7.5-0.51-10.699-2.839-0.263-0.19-0.515-0.397-0.783-0.604-0.309 0.433-0.596 0.854-0.903 1.259-0.125 0.165-0.138 0.282-0.027 0.47 1.004 1.715 0.335 3.905-1.457 4.766-0.326 0.154-0.687 0.234-1.032 0.352h-0.85c-0.061-0.021-0.12-0.046-0.182-0.059-1.289-0.264-2.194-1.001-2.622-2.241-0.424-1.229-0.204-2.388 0.667-3.355 0.994-1.104 2.242-1.39 3.661-0.969 0.092 0.026 0.252 0.039 0.289-0.01 0.377-0.504 0.737-1.021 1.096-1.524-2.75-3.141-4.075-6.765-3.858-10.896 0.219-4.137 1.957-7.582 4.994-10.396-1.048-1.408-2.087-2.806-3.125-4.202-0.112 0.044-0.19 0.074-0.268 0.106-1.879 0.748-3.942-0.234-4.539-2.162-0.047-0.153-0.092-0.303-0.138-0.453zm18.231 26.494c4.751 0.009 8.599-3.808 8.597-8.575-0.002-4.712-3.82-8.534-8.423-8.589-4.795-0.057-8.731 3.775-8.739 8.555-0.009 4.766 3.819 8.609 8.565 8.609z" fill="#FFCF03"/>
<g fill="#fff">
	<path d="m104.3 46.309c-4.71 0-8.3-1.31-10.766-3.93-2.468-2.62-3.701-6.342-3.701-11.165 0-2.397 0.376-4.538 1.129-6.419s1.784-3.471 3.095-4.767c1.31-1.296 2.871-2.279 4.683-2.948 1.812-0.67 3.777-1.005 5.896-1.005 1.226 0 2.341 0.092 3.345 0.272 1.004 0.182 1.882 0.392 2.635 0.628 0.752 0.238 1.379 0.48 1.881 0.731s0.864 0.446 1.087 0.585l-1.881 5.269c-0.892-0.474-1.931-0.878-3.115-1.213-1.186-0.333-2.53-0.501-4.035-0.501-1.003 0-1.986 0.167-2.948 0.501-0.962 0.335-1.813 0.873-2.551 1.611-0.738 0.739-1.331 1.693-1.776 2.864-0.447 1.171-0.669 2.594-0.669 4.265 0 1.338 0.146 2.584 0.438 3.742s0.767 2.154 1.421 2.989c0.655 0.838 1.512 1.5 2.571 1.987 1.06 0.488 2.342 0.731 3.847 0.731 0.948 0 1.798-0.056 2.552-0.166 0.753-0.112 1.421-0.244 2.007-0.398 0.585-0.154 1.1-0.327 1.547-0.521 0.445-0.195 0.85-0.378 1.212-0.544l1.798 5.226c-0.92 0.559-2.216 1.061-3.889 1.506-1.68 0.446-3.62 0.67-5.82 0.67z"/>
	<path d="m140.49 40.12v5.604h-19.36v-28.978h6.523v23.374h12.84z"/>
	<path d="m176.2 31.214c0 2.48-0.37 4.661-1.108 6.544-0.738 1.882-1.749 3.458-3.031 4.726-1.282 1.269-2.808 2.223-4.579 2.864-1.77 0.641-3.672 0.961-5.707 0.961-1.979 0-3.848-0.32-5.604-0.961-1.757-0.642-3.291-1.596-4.601-2.864-1.311-1.268-2.342-2.844-3.094-4.726-0.753-1.883-1.129-4.063-1.129-6.544s0.39-4.663 1.17-6.545c0.781-1.882 1.833-3.463 3.158-4.746 1.323-1.282 2.857-2.245 4.6-2.886 1.742-0.641 3.575-0.963 5.499-0.963 1.979 0 3.846 0.322 5.603 0.963s3.289 1.604 4.6 2.886c1.31 1.282 2.342 2.863 3.095 4.746 0.75 1.882 1.12 4.064 1.12 6.545zm-22.12 0c0 1.421 0.175 2.704 0.524 3.847 0.347 1.144 0.849 2.127 1.504 2.946 0.656 0.825 1.456 1.459 2.405 1.904 0.947 0.445 2.034 0.67 3.262 0.67 1.198 0 2.278-0.225 3.241-0.67 0.961-0.445 1.77-1.079 2.424-1.904 0.656-0.822 1.157-1.803 1.507-2.946 0.347-1.143 0.521-2.426 0.521-3.847 0-1.423-0.174-2.711-0.521-3.867-0.35-1.158-0.852-2.147-1.507-2.97-0.655-0.822-1.463-1.456-2.424-1.902-0.963-0.445-2.043-0.669-3.241-0.669-1.228 0-2.314 0.23-3.262 0.689-0.949 0.46-1.749 1.102-2.405 1.923-0.655 0.824-1.157 1.813-1.504 2.971-0.34 1.156-0.52 2.431-0.52 3.825z"/>
	<path d="m203.26 45.724c-1.868-3.317-3.889-6.593-6.063-9.827-2.175-3.233-4.489-6.286-6.941-9.157v18.984h-6.439v-28.978h5.311c0.92 0.92 1.937 2.049 3.053 3.388 1.115 1.337 2.25 2.766 3.408 4.284 1.156 1.521 2.306 3.094 3.449 4.727 1.144 1.629 2.216 3.198 3.22 4.702v-17.101h6.482v28.978h-5.48z"/>
	<path d="m217.35 45.724v-28.978h19.57v5.478h-13.049v5.687h11.583v5.352h-11.583v6.984h14.01v5.478h-20.53z"/>
</g>
</svg>
